<svg xmlns="http://www.w3.org/2000/svg" xmlns:xlink="http://www.w3.org/1999/xlink"><symbol id="sprite-angle-down-tablet" fill="none" viewBox="0 0 26 26"><path fill="#fff" d="M26 0a26 26 0 0 0-26 26v-26z"/></symbol><use xlink:href="#sprite-angle-down-tablet" width="26" height="26"/><view id="sprite-angle-down-tablet-view" viewBox="0 0 26 26"/><symbol id="sprite-angle-down" fill="none" viewBox="0 0 8 10"><path fill="#fff" d="M8 0c-4.42 0-8 4.48-8 10v-10z"/></symbol><use xlink:href="#sprite-angle-down" width="8" height="10" y="26"/><view id="sprite-angle-down-view" viewBox="0 26 8 10"/><symbol id="sprite-angle" fill="none" viewBox="0 0 16 16"><path fill="#f0efe9" d="M16 16a16 16 0 0 1-16-16v16z"/></symbol><use xlink:href="#sprite-angle" width="16" height="16" y="36"/><view id="sprite-angle-view" viewBox="0 36 16 16"/><symbol id="sprite-arrow-right" fill="none" viewBox="0 0 22 22"><path stroke="#316dc2" stroke-width="2" d="M6 10.69h10m0 0-4.97 5.31m4.97-5.31-4.97-4.69"/></symbol><use xlink:href="#sprite-arrow-right" width="22" height="22" y="52"/><view id="sprite-arrow-right-view" viewBox="0 52 22 22"/><symbol id="sprite-arrow" fill="none" viewBox="0 0 10 10"><g clip-path="url(#a)"><path stroke="#fff" stroke-width="1.6" d="m1.8 8.2 6.4-6.4m0 0h-6.36m6.36 0v6.36"/></g><defs><clipPath id="a"><path fill="#fff" d="M1 1h8v8h-8z"/></clipPath></defs></symbol><use xlink:href="#sprite-arrow" width="10" height="10" y="74"/><view id="sprite-arrow-view" viewBox="0 74 10 10"/><symbol id="sprite-arrowdown-dark" fill="none" viewBox="0 0 16 16"><path stroke="#484848" d="m15.27 5.09-7.27 6.55-7.27-6.55"/></symbol><use xlink:href="#sprite-arrowdown-dark" width="16" height="16" y="84"/><view id="sprite-arrowdown-dark-view" viewBox="0 84 16 16"/><symbol id="sprite-arrowdown" fill="none" viewBox="0 0 16 16"><path stroke="#fff" d="m15.27 5.09-7.27 6.55-7.27-6.55"/></symbol><use xlink:href="#sprite-arrowdown" width="16" height="16" y="100"/><view id="sprite-arrowdown-view" viewBox="0 100 16 16"/><symbol id="sprite-check" fill="none" viewBox="0 0 10 10"><path stroke="#316dc2" stroke-linecap="round" stroke-linejoin="round" d="m1 4.5 2.95 3.5 5.05-6"/></symbol><use xlink:href="#sprite-check" width="10" height="10" y="116"/><view id="sprite-check-view" viewBox="0 116 10 10"/><symbol id="sprite-cross" fill="none" viewBox="0 0 16 16"><path stroke="#316dc2" stroke-linecap="round" stroke-linejoin="round" d="m2 14 6-6m0 0 6-6m-6 6 6 6m-6-6-6-6"/></symbol><use xlink:href="#sprite-cross" width="16" height="16" y="126"/><view id="sprite-cross-view" viewBox="0 126 16 16"/><symbol id="sprite-error" fill="none" viewBox="0 0 22 22"><path stroke="#fff" stroke-linecap="round" stroke-linejoin="round" d="m2 20 9-9m0 0 9-9m-9 9 9 9m-9-9-9-9"/></symbol><use xlink:href="#sprite-error" width="22" height="22" y="142"/><view id="sprite-error-view" viewBox="0 142 22 22"/><symbol id="sprite-logo" fill="none" viewBox="0 0 30 30"><g clip-path="url(#a)"><path fill="#316dc2" d="M.92 8.8c-.85.6-1.35 1.9-.41 3.43s14.38 11.9 14.88 12.2.98.33 2.24-.68 11.74-8.88 12-9.12c.44-.38.54-1.3 0-1.73 0 0-12.7 9.5-13.11 9.89s-1.06-.24-.94-1.06.2-.9 1.82-2.16l11.18-8.48c.47-.35.48-.96-.3-1.5l-13.01-9.27c-.4-.3-.93-.55-1.73.02-.81.58-11.06 7.35-12.62 8.46"/><path fill="#316dc2" d="M15.39 25.43c-.33-.19-6.23-4.71-10.51-8.24v7.35c0 5.37 15.12 8.24 20.13 1.64v-7.03a748 748 0 0 0-7.38 5.61c-1.26 1-1.75.96-2.24.67"/><path fill="#98b8e6" d="M21.78 17.37s2.25 1.13 2.41 5.68l-1.09-.3-.87 1.85c-.37-4.98-2.37-5.7-2.37-5.7z"/></g><defs><clipPath id="a"><path fill="#fff" d="M0 0h30v30h-30z"/></clipPath></defs></symbol><use xlink:href="#sprite-logo" width="30" height="30" y="164"/><view id="sprite-logo-view" viewBox="0 164 30 30"/><symbol id="sprite-ok" fill="none" viewBox="0 0 22 22"><path fill="#316dc2" d="M11 3.33c1.32 0 2.4 1.05 2.4 2.35s-1.08 2.35-2.4 2.35-2.4-1.06-2.4-2.35c0-1.3 1.08-2.35 2.4-2.35m0 8.02c3.2 0 5.8-2.54 5.8-5.67s-2.6-5.68-5.8-5.68-5.79 2.55-5.79 5.68 2.6 5.68 5.79 5.68m2.34 4.63a11 11 0 0 0 3.37-1.37 1.64 1.64 0 0 0 .53-2.3 1.7 1.7 0 0 0-2.34-.52 7.5 7.5 0 0 1-7.8 0 1.7 1.7 0 0 0-2.34.53 1.64 1.64 0 0 0 .53 2.29 11 11 0 0 0 3.37 1.37l-3.24 3.17a1.64 1.64 0 0 0 0 2.35 1.73 1.73 0 0 0 2.4 0l3.18-3.12 3.18 3.12a1.7 1.7 0 0 0 2.4 0 1.64 1.64 0 0 0 0-2.35z"/></symbol><use xlink:href="#sprite-ok" width="22" height="22" y="194"/><view id="sprite-ok-view" viewBox="0 194 22 22"/><symbol id="sprite-reddit" fill="none" viewBox="0 0 22 22"><path fill="#316dc2" d="M12.95.5a2.1 2.1 0 0 0-1.63.83c-.39.5-.6 1.1-.76 1.73a15 15 0 0 0-.34 3.17c-1.8.12-3.43.68-4.79 1.55a2.8 2.8 0 0 0-1.85-.75 2.4 2.4 0 0 0-1.92 1 3.8 3.8 0 0 0 .27 4.64 7 7 0 0 0-.12 1.18c0 4.23 4.11 7.65 9.19 7.65s9.2-3.43 9.2-7.65q-.01-.6-.13-1.18a3.8 3.8 0 0 0 .27-4.63 2.4 2.4 0 0 0-1.92-1.01c-.64 0-1.3.26-1.85.75a10 10 0 0 0-4.77-1.56c.03-.93.1-1.9.27-2.64q.17-.7.39-.98c.22-.28.25-.26.49-.26.52 0 .58.18.9.6.15.22.34.5.63.75.29.27.72.5 1.19.5v-1.85c-.13 0-.16 0-.24-.09q-.13-.13-.4-.51c-.35-.5-1.05-1.24-2.08-1.24m5.06.17c-1.22 0-2.2 1.16-2.2 2.6 0 1.42.98 2.58 2.2 2.58s2.18-1.16 2.18-2.59-.98-2.59-2.19-2.59m0 .92c.78 0 1.41.75 1.41 1.67s-.63 1.67-1.4 1.67-1.42-.75-1.42-1.67.64-1.67 1.41-1.67m-7 6.07c4.3 0 7.95 2.84 7.95 6.19s-3.64 6.18-7.95 6.18-7.95-2.83-7.95-6.18 3.64-6.19 7.95-6.19m-7.4.84q.34 0 .66.17-1.18 1.05-1.82 2.42c-.3-.72-.21-1.6.15-2.07a1.2 1.2 0 0 1 1.02-.52m14.78 0q.62 0 1.02.51c.36.48.44 1.37.15 2.08a8 8 0 0 0-1.82-2.42 2 2 0 0 1 .65-.17m-10.5 2.3c-.78 0-1.41.75-1.41 1.67s.63 1.67 1.4 1.67 1.42-.75 1.42-1.67-.63-1.67-1.41-1.67m6.22 0c-.78 0-1.4.75-1.4 1.67s.62 1.67 1.4 1.67 1.41-.75 1.41-1.67-.63-1.67-1.4-1.67m-6.99 5.67c.5 1.2 2.03 2.38 3.87 2.38s3.4-1.17 3.89-2.38c-.9.68-2.32 1.15-3.89 1.15s-2.97-.47-3.87-1.15"/></symbol><use xlink:href="#sprite-reddit" width="22" height="22" y="216"/><view id="sprite-reddit-view" viewBox="0 216 22 22"/><symbol id="sprite-star" fill="none" viewBox="0 0 18 22"><path fill="#fff" d="m9 0 3.01 5.48 5.99.02-2.97 5.5 2.97 5.5-5.99.03-3.01 5.47-3.01-5.47-5.99-.03 2.97-5.5-2.97-5.5 5.99-.02z"/></symbol><use xlink:href="#sprite-star" width="18" height="22" y="238"/><view id="sprite-star-view" viewBox="0 238 18 22"/><symbol id="sprite-success" fill="none" viewBox="0 0 22 22"><path stroke="#fff" stroke-linecap="round" stroke-linejoin="round" d="m1 9.5 7.37 10.5 12.63-18"/></symbol><use xlink:href="#sprite-success" width="22" height="22" y="260"/><view id="sprite-success-view" viewBox="0 260 22 22"/><symbol id="sprite-vk" fill="none" viewBox="0 0 22 22"><path fill="#316dc2" d="M21.8 15.7c-.06-.1-.42-.85-2.18-2.41-1.84-1.64-1.6-1.37.62-4.2 1.36-1.72 1.9-2.77 1.73-3.22-.16-.43-1.16-.32-1.16-.32l-3.3.02s-.25-.03-.43.07-.3.34-.3.34-.52 1.33-1.22 2.47c-1.47 2.39-2.06 2.51-2.3 2.37-.56-.35-.42-1.4-.42-2.14 0-2.31.37-3.28-.72-3.53a6 6 0 0 0-1.54-.15c-1.18 0-2.18 0-2.74.27-.38.18-.67.57-.5.6.22.02.72.12.98.46.34.44.33 1.43.33 1.43s.2 2.73-.46 3.07c-.44.23-1.06-.24-2.37-2.41-.67-1.11-1.18-2.34-1.18-2.34s-.1-.23-.27-.35a1.4 1.4 0 0 0-.51-.2l-3.14.02s-.47.01-.65.2c-.15.18-.01.54-.01.54s2.46 5.5 5.25 8.28c2.55 2.55 5.46 2.38 5.46 2.38h1.3s.4-.04.6-.25.19-.55.19-.55-.03-1.69.8-1.94c.8-.24 1.84 1.63 2.93 2.35.83.55 1.47.43 1.47.43l2.94-.04s1.53-.1.8-1.25"/></symbol><use xlink:href="#sprite-vk" width="22" height="22" y="282"/><view id="sprite-vk-view" viewBox="0 282 22 22"/></svg>